<?xml version="1.0" standalone="no"?>
<!DOCTYPE svg PUBLIC "-//W3C//DTD SVG 20010904//EN"
 "http://www.w3.org/TR/2001/REC-SVG-20010904/DTD/svg10.dtd">
<svg version="1.0" xmlns="http://www.w3.org/2000/svg"
 width="1280.000000pt" height="1280.000000pt" viewBox="0 0 1280.000000 1280.000000"
 preserveAspectRatio="xMidYMid meet">
<g transform="translate(0.000000,1280.000000) scale(0.100000,-0.100000)"
fill="#000000" stroke="none">
<path d="M6260 9655 c-288 -49 -483 -166 -651 -388 -127 -168 -164 -281 -156
-472 12 -276 121 -481 338 -636 119 -85 140 -117 114 -173 -20 -42 -62 -65
-226 -122 -154 -54 -267 -105 -309 -141 -25 -20 -30 -32 -30 -68 0 -59 20 -81
173 -181 158 -105 293 -233 356 -341 94 -159 131 -352 131 -683 0 -580 -118
-848 -501 -1141 -114 -86 -139 -117 -139 -167 0 -32 -41 -98 -72 -117 -18 -11
-74 -34 -125 -51 -130 -44 -194 -85 -308 -199 -138 -138 -214 -273 -250 -445
-28 -135 -17 -226 36 -276 71 -68 70 -108 -4 -145 -114 -58 -157 -108 -157
-183 0 -128 99 -183 410 -231 319 -50 698 -73 1305 -82 998 -13 1847 56 2041
167 60 34 84 76 84 148 0 80 -28 111 -179 194 -44 24 -41 58 9 115 53 61 64
98 57 207 -17 313 -273 640 -573 732 -132 40 -176 80 -194 172 -5 30 -12 57
-15 62 -3 5 -53 45 -111 90 -212 164 -310 275 -388 441 -85 180 -115 336 -123
635 -15 595 85 826 471 1086 142 95 183 131 191 168 7 31 -9 78 -33 97 -34 28
-180 92 -309 137 -152 52 -168 59 -205 94 -21 19 -28 35 -28 62 0 42 33 77
140 152 179 125 289 324 320 579 28 231 -61 441 -272 645 -153 147 -307 221
-538 259 -111 18 -177 18 -280 0z"/>
</g>
</svg>
